<svg width="22" height="22" viewBox="0 0 22 22" fill="none" xmlns="http://www.w3.org/2000/svg">
        <path fill-rule="evenodd" clip-rule="evenodd" d="M20.9994 15.9738V18.9846C21.0017 19.5498 20.7651 20.0898 20.3478 20.4718C19.9305 20.8539 19.3712 21.0427 18.8072 20.9918C15.7128 20.6563 12.7404 19.601 10.1289 17.9108C7.69922 16.3699 5.63927 14.3141 4.09534 11.8892C2.39587 9.27098 1.33825 6.29008 1.00817 3.18795C0.95736 2.62681 1.1452 2.07019 1.52581 1.65407C1.90643 1.23794 2.44475 1.00063 3.0093 1.0001H6.02608C7.03556 0.990183 7.89598 1.72868 8.03727 2.72629C8.1646 3.68982 8.40074 4.63587 8.74118 5.54641C9.01746 6.27992 8.84075 7.10682 8.28867 7.66401L7.01156 8.93859C8.44308 11.4512 10.5276 13.5315 13.0451 14.9602L14.3222 13.6856C14.8805 13.1346 15.7091 12.9583 16.444 13.234C17.3564 13.5738 18.3043 13.8094 19.2697 13.9365C20.2809 14.0789 21.0247 14.955 20.9994 15.9738Z" stroke-width="2" stroke-linecap="round" stroke-linejoin="round"></path>
             </svg>